<svg id="visual" viewBox="0 0 900 600" width="900" height="600" xmlns="http://www.w3.org/2000/svg" xmlns:xlink="http://www.w3.org/1999/xlink" version="1.1"><rect x="0" y="0" width="900" height="600" fill="#FFF"></rect><path d="M390 0L417 67L439 133L362 200L397 267L399 333L363 400L428 467L452 533L380 600L0 600L0 533L0 467L0 400L0 333L0 267L0 200L0 133L0 67L0 0Z" fill="#084085"></path><path d="M436 0L412 67L365 133L334 200L359 267L360 333L315 400L403 467L424 533L352 600L0 600L0 533L0 467L0 400L0 333L0 267L0 200L0 133L0 67L0 0Z" fill="#063a79"></path><path d="M254 0L346 67L378 133L256 200L245 267L251 333L346 400L374 467L257 533L314 600L0 600L0 533L0 467L0 400L0 333L0 267L0 200L0 133L0 67L0 0Z" fill="#04346d"></path><path d="M186 0L218 67L278 133L232 200L291 267L268 333L183 400L284 467L263 533L184 600L0 600L0 533L0 467L0 400L0 333L0 267L0 200L0 133L0 67L0 0Z" fill="#042e61"></path><path d="M123 0L213 67L176 133L113 200L163 267L146 333L155 400L215 467L177 533L130 600L0 600L0 533L0 467L0 400L0 333L0 267L0 200L0 133L0 67L0 0Z" fill="#032956"></path><path d="M64 0L95 67L120 133L108 200L93 267L62 333L92 400L107 467L101 533L60 600L0 600L0 533L0 467L0 400L0 333L0 267L0 200L0 133L0 67L0 0Z" fill="#03234b"></path></svg>