<svg id="visual" viewBox="0 0 900 600" width="900" height="600" xmlns="http://www.w3.org/2000/svg" xmlns:xlink="http://www.w3.org/1999/xlink" version="1.1"><rect x="0" y="0" width="900" height="600" fill="#eeeef4"></rect><path d="M0 259L100 277L200 291L300 240L400 263L500 264L600 240L700 284L800 300L900 252L900 0L800 0L700 0L600 0L500 0L400 0L300 0L200 0L100 0L0 0Z" fill="#084085"></path><path d="M0 289L100 273L200 242L300 221L400 238L500 238L600 208L700 267L800 281L900 233L900 0L800 0L700 0L600 0L500 0L400 0L300 0L200 0L100 0L0 0Z" fill="#063a79"></path><path d="M0 168L100 229L200 250L300 169L400 162L500 166L600 229L700 248L800 169L900 208L900 0L800 0L700 0L600 0L500 0L400 0L300 0L200 0L100 0L0 0Z" fill="#04346d"></path><path d="M0 122L100 144L200 184L300 153L400 192L500 177L600 120L700 188L800 174L900 121L900 0L800 0L700 0L600 0L500 0L400 0L300 0L200 0L100 0L0 0Z" fill="#042e61"></path><path d="M0 81L100 140L200 116L300 74L400 107L500 96L600 101L700 142L800 117L900 85L900 0L800 0L700 0L600 0L500 0L400 0L300 0L200 0L100 0L0 0Z" fill="#032956"></path><path d="M0 41L100 62L200 78L300 70L400 60L500 40L600 59L700 69L800 66L900 39L900 0L800 0L700 0L600 0L500 0L400 0L300 0L200 0L100 0L0 0Z" fill="#03234b"></path></svg>